<svg aria-hidden="true" style="position: absolute; width: 0; height: 0; overflow: hidden;" version="1.1" xmlns="http://www.w3.org/2000/svg" xmlns:xlink="http://www.w3.org/1999/xlink">
<defs>
<symbol id="icon-check" viewBox="0 0 45 32">
<path d="M6.95 16.374c-0.57-0.518-1.331-0.836-2.166-0.836s-1.596 0.317-2.169 0.838l0.003-0.002c-0.552 0.499-0.897 1.218-0.897 2.018s0.345 1.518 0.895 2.015l0.002 0.002 10.832 10.086c1.2 1.12 3.146 1.114 4.342-0.010l24.397-22.925c0.545-0.499 0.886-1.213 0.886-2.007 0-0.803-0.349-1.525-0.903-2.022l-0.003-0.002c-0.569-0.514-1.327-0.828-2.158-0.828-0.839 0-1.604 0.321-2.178 0.846l0.002-0.002-22.23 20.89-8.656-8.061z"></path>
</symbol>
<symbol id="icon-arrow" viewBox="0 0 32 32">
<path d="M4 15.333c0-0.368 0.298-0.667 0.667-0.667v0h21.333c0.368 0 0.667 0.298 0.667 0.667s-0.298 0.667-0.667 0.667v0h-21.333c-0.368 0-0.667-0.298-0.667-0.667v0z"></path>
<path d="M20.861 10.195c0.121-0.121 0.288-0.196 0.472-0.196s0.351 0.075 0.472 0.196v0l5.137 5.139-5.137 5.139c-0.121 0.121-0.288 0.195-0.472 0.195-0.369 0-0.668-0.299-0.668-0.668 0-0.184 0.075-0.351 0.195-0.472v0l4.196-4.195-4.196-4.195c-0.121-0.121-0.196-0.288-0.196-0.472s0.075-0.351 0.196-0.472v0z"></path>
</symbol>
<symbol id="icon-facebook" viewBox="0 0 32 32">
<path   d="M17.915 31.988h-6.89v-15.99h-3.444v-5.512h3.444v-3.308c0-4.495 1.945-7.171 7.466-7.171h4.598v5.512h-2.872c-2.152 0-2.294 0.771-2.294 2.21l-0.008 2.757h5.208l-0.61 5.512h-4.598v15.99z"></path>
</symbol>
<symbol id="icon-email" viewBox="0 0 32 32">
<path fill="none" stroke="#fff" stroke-width="1.6" stroke-miterlimit="4" stroke-linecap="butt" stroke-linejoin="miter" style="stroke: var(--color1, #fff)" d="M16.28 17.324l-0.010 0.006c-0.062 0.040-0.138 0.064-0.219 0.064-0.001 0-0.002 0-0.003 0h-0.008c-0.005 0-0.011 0-0.018 0-0.081 0-0.156-0.025-0.218-0.067l-0.001 0.001-13.604-11.528h27.672l-13.594 11.524zM20.070 17.978l9.95 8.222h-28.052l9.972-8.282 1.988 1.684c0.586 0.494 1.34 0.754 2.114 0.754 0.776 0 1.53-0.262 2.116-0.756v-0.002l1.91-1.62zM9.66 15.984l-8.86 7.356v-14.864l8.86 7.508zM31.2 8.538v14.814l-8.846-7.312 8.846-7.5z"></path>
</symbol>
<symbol id="icon-phone" viewBox="0 0 32 32">
<path fill="#fff" style="fill: var(--color1, #fff)" d="M30.123 24.71l1.865-0.245-0.008-0.062-0.013-0.062-1.845 0.369zM29.675 25.986l1.327 1.336 0.006-0.006-1.331-1.331zM25.432 30.197l-1.325-1.336-0.038 0.038-0.036 0.040 1.399 1.261zM24.683 30.739v0zM23.774 31.027v1.882h0.134l0.132-0.019-0.265-1.864zM23.582 31.042l0.188 1.875-0.188-1.873zM17.888 29.83v0zM13.436 27.39v0zM8.141 22.923l1.338-1.323-0.019-0.019-1.32 1.342zM4.44 18.711v0zM2.080 14.995v0zM0.038 7.29l-1.864-0.267-0.019 0.132v0.136h1.882zM0.866 5.632l1.261 1.399 0.072-0.068-1.333-1.331zM5.111 1.387v0zM7.407 1.771l1.666-0.879-0.038-0.068-0.040-0.064-1.589 1.011zM10.822 8.247l-1.666 0.879 0.011 0.023 0.013 0.023 1.641-0.922zM10.438 10.385v0zM8.875 11.947v0zM8.715 12.395h-1.882v0.177l0.034 0.175 1.848-0.352zM9.289 13.926l1.683-0.841-0.006-0.011-0.006-0.013-1.672 0.866zM12.734 18.33l1.346-1.318-0.013-0.015-0.015-0.015-1.318 1.346zM15.287 20.61v0zM18.302 22.268v0zM18.701 22.349l-0.369 1.845 0.183 0.038h0.186v-1.882zM18.908 22.3l0.595 1.788v-0.002l-0.595-1.786zM19.115 22.189l1.333 1.331 0.011-0.011-1.344-1.32zM20.934 20.339l-1.25-1.408-0.047 0.043-0.045 0.045 1.342 1.32zM23.136 20.019l-0.969 1.615 0.448 0.269h0.521v-1.882zM23.168 20.019l0.956-1.619-0.442-0.264h-0.514v1.882zM29.325 23.657l0.99-1.6-0.015-0.011-0.019-0.009-0.956 1.619zM28.256 24.954c-0.001-0.009-0.001-0.020-0.001-0.030 0-0.054 0.010-0.106 0.028-0.154l-0.001 0.003c0.030-0.088 0.072-0.126 0.062-0.119l2.664 2.662c0.757-0.757 1.124-1.756 0.981-2.85l-3.733 0.488zM28.35 24.649l-4.243 4.211 2.652 2.673 4.243-4.211-2.652-2.673zM24.034 28.937s-0.009 0.011-0.036 0.030c-0.038 0.027-0.081 0.052-0.126 0.073l-0.005 0.002 1.634 3.392c0.489-0.235 0.949-0.553 1.333-0.979l-2.799-2.519zM23.864 29.045c-0.104 0.054-0.224 0.096-0.35 0.118l-0.007 0.001 0.533 3.727c0.514-0.075 1.003-0.233 1.463-0.456l-1.638-3.39zM23.774 29.144c-0.141 0-0.326 0.019-0.378 0.024l0.375 3.746c0.023 0 0.043-0.004 0.060-0.006l0.038-0.004c0 0 0.001 0 0.001 0s0.001 0 0.001 0h-0l-0.026 0.002h-0.070v-3.765zM23.398 29.169c-0.021 0.004-0.092 0.008-0.23 0.008v3.765c0.201 0 0.408-0.006 0.602-0.024l-0.375-3.746zM23.168 29.176c-0.248 0-0.781-0.049-1.677-0.186l-0.57 3.721c0.911 0.139 1.688 0.23 2.248 0.23v-3.765zM21.491 28.99c-0.696-0.105-1.647-0.386-2.882-0.898l-1.442 3.475c1.38 0.572 2.643 0.973 3.753 1.143l0.57-3.721zM18.609 28.092c-1.167-0.484-2.545-1.233-4.141-2.278l-2.063 3.151c1.722 1.126 3.311 2.003 4.76 2.603l1.442-3.477zM14.468 25.815c-1.517-0.992-3.181-2.387-4.988-4.216l-2.677 2.648c1.935 1.958 3.802 3.541 5.604 4.719l2.061-3.151zM9.461 21.583c-1.432-1.414-2.596-2.741-3.501-3.981l-3.040 2.221c1.052 1.438 2.357 2.918 3.9 4.442l2.643-2.682zM5.961 17.6c-0.756-1.005-1.489-2.143-2.138-3.333l-0.074-0.147-3.337 1.749c0.648 1.24 1.489 2.56 2.507 3.953l3.040-2.219zM3.748 14.121c-0.434-0.785-0.845-1.709-1.178-2.67l-0.038-0.128-3.584 1.152c0.339 1.054 0.834 2.187 1.464 3.392l3.336-1.747zM2.532 11.324c-0.206-0.584-0.394-1.294-0.527-2.023l-0.014-0.089-3.718 0.591c0.126 0.796 0.358 1.692 0.674 2.673l3.584-1.152zM1.992 9.212c-0.068-0.347-0.107-0.746-0.107-1.154 0-0.009 0-0.019 0-0.028v0.001l-3.759-0.207c-0.032 0.58 0.034 1.261 0.149 1.976l3.718-0.589zM1.884 8.032c0.019-0.339 0.036-0.631 0.036-0.742h-3.765v-0.015l-0.006 0.113-0.024 0.435 3.759 0.209zM1.901 7.556c0.023-0.134 0.064-0.254 0.122-0.364l-0.003 0.007-3.39-1.636c-0.213 0.424-0.372 0.915-0.452 1.433l-0.004 0.028 3.727 0.533zM2.020 7.198c0.024-0.051 0.049-0.094 0.077-0.135l-0.002 0.003 0.030-0.038-2.519-2.797c-0.402 0.369-0.731 0.811-0.968 1.305l-0.011 0.026 3.392 1.638zM2.199 6.963l4.243-4.245-2.662-2.662-4.245 4.243 2.664 2.665zM6.441 2.718c0.004-0.004-0.026 0.028-0.098 0.058-0.063 0.029-0.135 0.046-0.212 0.047h-0v-3.765c-0.934 0-1.739 0.386-2.353 0.998l2.665 2.662zM6.131 2.824c-0.149-0.005-0.286-0.056-0.397-0.139l0.002 0.001 2.259-3.012c-0.507-0.384-1.149-0.616-1.845-0.616-0.007 0-0.013 0-0.020 0h0.001v3.765zM5.736 2.686c0.033 0.026 0.061 0.057 0.082 0.093l0.001 0.002 3.179-2.018c-0.272-0.426-0.605-0.786-0.991-1.079l-0.010-0.007-2.259 3.012zM5.741 2.648l3.415 6.475 3.332-1.754-3.415-6.475-3.332 1.752zM9.18 9.171c-0.019-0.035-0.032-0.077-0.037-0.121l-0-0.002c-0.009-0.053-0.002-0.081-0.004-0.072l3.684 0.776c0.052-0.223 0.081-0.479 0.081-0.742 0-0.62-0.164-1.201-0.451-1.703l0.009 0.017-3.281 1.845zM9.139 8.977c-0.004 0.023-0.010 0.044-0.019 0.064l0.001-0.002c-0.004 0.006-0.008 0.011-0.013 0.015l-0 0 2.662 2.662c0.55-0.55 0.898-1.224 1.054-1.963l-3.684-0.776zM9.107 9.052l-1.562 1.564 2.662 2.664 1.562-1.564-2.662-2.662zM7.544 10.616c-0.344 0.344-0.497 0.734-0.567 0.943l3.571 1.192c-0.081 0.205-0.197 0.381-0.343 0.527l0-0-2.662-2.662zM6.978 11.56c-0.064 0.19-0.145 0.488-0.145 0.836h3.765c-0 0.127-0.018 0.249-0.051 0.365l0.002-0.009-3.571-1.193zM6.865 12.745c0.132 0.685 0.405 1.374 0.753 2.048l3.343-1.734c-0.167-0.293-0.303-0.632-0.39-0.989l-0.006-0.027-3.699 0.704zM7.607 14.769c0.32 0.64 0.777 1.355 1.338 2.127l3.049-2.208c-0.353-0.465-0.692-0.989-0.99-1.539l-0.032-0.065-3.366 1.685zM8.945 16.896c0.617 0.853 1.453 1.781 2.473 2.778l2.633-2.692c-0.937-0.915-1.611-1.679-2.057-2.295l-3.049 2.21zM11.39 19.644c0.998 1.022 1.929 1.862 2.79 2.487l2.216-3.042c-0.629-0.459-1.399-1.141-2.315-2.076l-2.692 2.632zM14.18 22.131c0.779 0.568 1.493 1.033 2.118 1.352l1.713-3.351c-0.619-0.34-1.147-0.685-1.647-1.066l0.032 0.023-2.216 3.042zM16.297 23.482c0.527 0.269 1.103 0.527 1.638 0.632l0.734-3.691c0.026 0.004-0.019-0.002-0.151-0.056-0.213-0.088-0.381-0.168-0.544-0.254l0.035 0.017-1.713 3.352zM17.933 24.115l0.399 0.079 0.738-3.689-0.399-0.081-0.738 3.689zM18.701 24.232c0.378 0 0.706-0.113 0.802-0.145l-1.188-3.569c-0.013 0.004 0.006-0.004 0.049-0.013 0.094-0.024 0.203-0.038 0.315-0.038 0.009 0 0.017 0 0.026 0l-0.001-0v3.765zM19.505 24.087c0.207-0.070 0.599-0.222 0.941-0.565l-2.66-2.665c0.146-0.145 0.322-0.262 0.517-0.339l0.010-0.004 1.193 3.571zM20.459 23.509l1.818-1.85-2.686-2.639-1.818 1.85 2.686 2.639zM22.185 21.747c0.010-0.010 0.021-0.019 0.033-0.028l0.001-0.001c0.004 0 0.006-0.002 0.006-0.004h0.008c0.006-0.002 0.019-0.004 0.041-0.004v-3.765c-0.973 0-1.864 0.339-2.59 0.984l2.502 2.816zM22.274 21.709c0.075 0 0.094 0.008 0.079 0.004-0.071-0.018-0.133-0.045-0.189-0.081l0.003 0.002 1.939-3.228c-0.61-0.365-1.274-0.459-1.832-0.459v3.765zM23.136 21.903h0.032v-3.765h-0.032v3.765zM22.21 21.64l6.157 3.639 1.916-3.241-6.159-3.639-1.914 3.243zM28.335 25.257c0.062 0.038 0.056 0.049 0.024 0.008-0.040-0.052-0.069-0.115-0.082-0.184l-0-0.003 3.691-0.738c-0.207-1.043-0.864-1.796-1.653-2.283l-1.982 3.2z"></path>
</symbol>
<symbol id="icon-linkedin" viewBox="0 0 32 32">
<path d="M29.619 30.421h-27.238c-1.306 0-2.363-0.926-2.363-2.069v-24.701c0-1.141 1.058-2.067 2.363-2.067h27.238c1.304 0 2.362 0.926 2.362 2.067v24.701c0 1.142-1.058 2.069-2.362 2.069zM5.557 25.67h4.707v-13.019h-4.707v13.019zM7.942 6.376c-1.611 0-2.662 0.971-2.662 2.25 0 1.248 1.021 2.25 2.6 2.25h0.030c1.642 0 2.662-1.002 2.662-2.25-0.029-1.278-1.021-2.25-2.63-2.25zM27.237 18.206c0-4-2.323-5.861-5.419-5.861-2.499 0-3.616 1.262-4.242 2.15v-1.845h-4.707c0.062 1.222 0 13.019 0 13.019h4.707v-7.27c0-0.387 0.030-0.778 0.155-1.054 0.339-0.778 1.115-1.582 2.414-1.582 1.704 0 2.384 1.194 2.384 2.944v6.963h4.707v-7.464zM17.544 14.539l0.032-0.043v0.043h-0.032z"></path>
</symbol>
<symbol id="icon-pininterest" viewBox="0 0 32 32">
<path  d="M16.714 0c-8.312 0-12.502 5.932-12.502 10.88 0 2.995 1.139 5.659 3.582 6.653 0.401 0.163 0.76 0.005 0.876-0.436 0.081-0.305 0.273-1.076 0.357-1.398 0.118-0.436 0.072-0.589-0.251-0.97-0.706-0.827-1.155-1.898-1.155-3.416 0-4.401 3.308-8.34 8.613-8.34 4.697 0 7.277 2.858 7.277 6.673 0 5.022-2.232 9.26-5.546 9.26-1.829 0-3.198-1.507-2.76-3.355 0.527-2.205 1.544-4.586 1.544-6.179 0-1.425-0.768-2.614-2.36-2.614-1.869 0-3.372 1.927-3.372 4.507 0 1.645 0.557 2.757 0.557 2.757l-2.25 9.489c-0.669 2.816-0.099 6.269-0.052 6.619 0.029 0.205 0.295 0.254 0.416 0.099 0.172-0.226 2.4-2.963 3.158-5.699 0.214-0.775 1.229-4.787 1.229-4.787 0.608 1.154 2.385 2.171 4.273 2.171 5.624 0 9.438-5.105 9.438-11.936 0-5.165-4.394-9.977-11.074-9.977z"></path>
</symbol>
<symbol id="icon-twitter" viewBox="0 0 32 32">
<path   d="M30.557 6.394c-1.050 0.448-2.267 0.774-3.54 0.918l-0.060 0.006c1.295-0.727 2.288-1.879 2.756-3.249-1.15 0.649-2.485 1.144-3.9 1.412l-0.082 0.013c-1.164-1.148-2.764-1.856-4.529-1.856-0.016 0-0.032 0-0.048 0h0.002c-3.462 0-6.271 2.631-6.271 5.875 0 0.461 0.055 0.911 0.163 1.34-5.21-0.246-9.83-2.585-12.922-6.138-0.532 0.838-0.848 1.859-0.848 2.954 0 0 0 0 0 0v0c0 2.036 1.107 3.837 2.788 4.89-1.042-0.031-2.015-0.3-2.875-0.753l0.036 0.017v0.076c0 2.847 2.16 5.22 5.028 5.76-0.497 0.129-1.068 0.204-1.655 0.204-0.415 0-0.822-0.037-1.217-0.108l0.042 0.006c0.797 2.332 3.113 4.032 5.856 4.080-2.137 1.571-4.82 2.514-7.724 2.514-0.022 0-0.044-0-0.066-0h0.003c-0.506 0-1.005-0.028-1.495-0.081 2.73 1.658 6.031 2.64 9.561 2.64 0.017 0 0.035-0 0.052-0h-0.003c11.532 0 17.837-8.954 17.837-16.717 0-0.256-0.007-0.508-0.019-0.761 1.227-0.836 2.264-1.844 3.104-3.004l0.025-0.036z"></path>
</symbol>
<symbol id="icon-location" viewBox="0 0 32 32">
<path fill="none" stroke="#fff" stroke-width="2" stroke-miterlimit="4" stroke-linecap="butt" stroke-linejoin="miter" style="stroke: var(--color1, #fff)" d="M8.016 18.5l0.010 0.014 7.974 11.71 7.994-11.74c1.48-2.004 2.15-4.726 1.98-7.44-0.17-2.71-1.174-5.304-2.908-7.064-1.795-1.838-4.297-2.978-7.066-2.978s-5.271 1.14-7.064 2.976l-0.002 0.002-0.918 14.52zM8.016 18.5l-0.010-0.016M8.016 18.498l-0.010-0.014M8.006 18.484c-1.48-2.004-2.15-4.726-1.98-7.44M8.006 18.484l-1.98-7.44M6.026 11.044c0.17-2.71 1.174-5.304 2.908-7.064l-2.908 7.066zM11.476 11.076c0 2.576 2.058 4.694 4.632 4.694 2.572 0 4.63-2.118 4.63-4.694s-2.058-4.692-4.63-4.692c-2.574 0-4.632 2.116-4.632 4.692z"></path>
</symbol>
</defs>
</svg>
